<svg xmlns="http://www.w3.org/2000/svg" viewBox="0 0 29.12 32"><g id="Layer_1" data-name="Layer 1"><path d="M1.68,24.33c-2.86.76-2.46,8,4.3,7.66,8-.36,21.38-11.06,20.09-11.24-.86-.13-7.59,4.49-14.86,5.1C5.35,26.33,3.51,23.85,1.68,24.33Z" transform="translate(0 0)" style="fill:#d81159"/><path d="M27.35,7.78c2.89-.67,2.7-7.89-4.06-7.78C15.3.13,1.58,10.42,2.87,10.64c.86.15,7.71-4.27,15-4.65C23.74,5.67,25.51,8.21,27.35,7.78Z" transform="translate(0 0)" style="fill:#fff"/><path d="M19.85,17.16c1.46.52,4.15-1.41,1.28-3-3.38-1.88-13-2.49-12.6-2.12s4.86.74,8,2.38C19.15,15.74,18.92,16.83,19.85,17.16Z" transform="translate(0 0)" style="fill:#fff"/><path d="M9.5,14.64c-1.43-.54-4.21,1.34-1.43,3C11.36,19.57,21,20.36,20.57,20s-4.82-.82-7.93-2.53C10.13,16.07,10.42,15,9.5,14.64Z" transform="translate(0 0)" style="fill:#d81159"/></g></svg>