<svg xmlns="http://www.w3.org/2000/svg" viewBox="0 0 21.84 24"><g id="Layer_1" data-name="Layer 1"><path d="M1.26,18.25c-2.15.57-1.85,6,3.22,5.74,6-.27,16-8.29,15.07-8.43-.65-.1-5.69,3.37-11.14,3.82C4,19.75,2.63,17.89,1.26,18.25Z"/><path d="M20.51,5.84c2.17-.51,2-5.92-3-5.84C11.48.1,1.19,7.81,2.15,8c.64.12,5.79-3.2,11.25-3.49C17.81,4.26,19.13,6.16,20.51,5.84Z"/><path d="M14.88,12.87c1.1.39,3.12-1.06,1-2.26C13.32,9.2,6.06,8.75,6.4,9s3.64.55,6,1.79C14.36,11.81,14.19,12.62,14.88,12.87Z"/><path d="M7.13,11C6.05,10.57,4,12,6.06,13.22c2.46,1.46,9.69,2,9.36,1.77s-3.61-.62-5.94-1.9C7.6,12.05,7.81,11.24,7.13,11Z"/></g></svg>