<svg xmlns="http://www.w3.org/2000/svg" viewBox="0 0 512 512"><g id="Layer_3" data-name="Layer 3"><rect width="512" height="512" style="fill:#2d3142"/></g><g id="Layer_1" data-name="Layer 1"><path d="M98.23,358.11c-35.12,9.26-30.18,97.61,52.6,93.82,97.73-4.48,262-135.47,246.18-137.78-10.55-1.55-92.9,55.08-182,62.5C143.21,382.62,120.6,352.21,98.23,358.11Z" style="fill:#d81159"/><path d="M412.73,155.31C448.11,147.1,445.8,58.64,362.94,60,265.12,61.53,97,187.58,112.77,190.36c10.5,1.86,94.5-52.3,183.81-57.05C368.5,129.48,390.19,160.54,412.73,155.31Z" style="fill:#fff"/><path d="M320.79,270.23c17.92,6.35,50.86-17.34,15.77-36.89-41.41-23.09-159.88-30.51-154.37-26,3.67,3,59.48,9,98.57,29.23C312.24,252.85,309.39,266.18,320.79,270.23Z" style="fill:#fff"/><path d="M194.06,239.35c-17.6-6.68-51.66,16.38-17.52,36.58,40.31,23.85,158.37,33.48,153.07,28.86-3.52-3.08-59-10.13-97.14-31.06C201.78,256.88,205.27,243.61,194.06,239.35Z" style="fill:#d81159"/></g></svg>